<?xml version="1.0" encoding="iso-8859-1"?>
<!DOCTYPE svg PUBLIC "-//W3C//DTD SVG 1.1//EN" "http://www.w3.org/Graphics/SVG/1.1/DTD/svg11.dtd">
<svg width="515" height="514" viewBox="0 0 515 514" fill="none" xmlns="http://www.w3.org/2000/svg">
<rect width="515" height="514" fill="#223344"/>
<path d="M166.701 513C90.136 456.274 -46.8235 286.781 17.8586 62.616L447.848 1L514 354.559L166.701 513Z" stroke="#223344"/>
<path d="M353.46 341.93C352.728 279.527 351.043 228.697 348.406 189.439C345.77 150.182 342.767 123.009 339.397 107.921C339.544 107.921 339.983 107.848 340.716 107.701C341.448 107.408 346.795 105.943 356.756 103.307C366.717 100.67 373.382 99.3516 376.751 99.3516C379.534 99.3516 381.658 100.157 383.123 101.769C384.734 103.233 385.906 105.724 386.639 109.239C387.518 112.608 388.03 117.076 388.177 122.643C388.323 128.209 388.396 135.021 388.396 143.077C388.396 154.503 388.177 167.613 387.737 182.408C387.444 197.203 387.005 212.804 386.419 229.21C385.833 245.616 385.101 262.462 384.222 279.747C383.489 297.032 382.684 313.951 381.805 330.504C380.926 347.057 379.974 362.804 378.948 377.745C378.069 392.687 377.19 406.09 376.312 417.955H356.097C351.556 417.955 348.26 417.296 346.209 415.978C344.158 414.806 342.181 412.975 340.276 410.484L175.262 182.628C177.898 215.44 179.729 244.957 180.755 271.178C181.78 297.398 182.293 319.225 182.293 336.656C182.293 353.502 181.927 367.271 181.194 377.965C180.462 388.512 179.729 396.935 178.997 403.233C177.972 410.558 176.873 416.124 175.701 419.933L148.675 414.879C142.962 413.707 138.567 411.583 135.491 408.507C132.562 405.431 131.097 400.963 131.097 395.104C131.097 393.492 131.17 391.734 131.316 389.83C131.609 387.926 131.976 385.948 132.415 383.897C133.88 377.013 135.198 369.322 136.37 360.826C137.688 352.184 138.787 341.71 139.666 329.405C140.545 317.101 141.204 302.379 141.644 285.24C142.083 267.955 142.303 247.301 142.303 223.277C142.303 204.381 142.156 187.242 141.863 171.861C141.57 156.48 141.424 141.466 141.424 126.817H99.0166V109.459C101.067 108.434 104.144 107.335 108.245 106.163C112.493 104.991 117.4 103.893 122.967 102.867C128.68 101.842 134.832 101.036 141.424 100.45C148.162 99.7178 155.047 99.3516 162.078 99.3516C166.619 99.3516 170.354 99.8643 173.284 100.89C176.36 101.769 178.924 103.526 180.975 106.163L353.46 341.93Z" fill="#FFFEF8"/>
</svg>
