<svg width="497" height="295" viewBox="0 0 497 295" fill="none" xmlns="http://www.w3.org/2000/svg">
<path d="M487.177 52.3418C487.398 51.0137 487.564 49.7409 487.675 48.5234C487.896 47.1953 488.007 45.9225 488.007 44.7051C488.007 40.0566 487.066 35.6296 485.184 31.4238C483.414 27.1074 480.757 23.3444 477.216 20.1348C473.785 16.8145 469.579 14.2135 464.598 12.332C459.618 10.3398 454.029 9.34375 447.831 9.34375C441.301 9.34375 434.384 10.7826 427.079 13.6602C419.774 16.4271 412.47 21.3522 405.165 28.4355C398.082 35.2975 390.777 44.1517 383.251 54.998C375.835 65.7337 368.42 77.6315 361.005 90.6914C353.7 103.641 346.506 117.309 339.423 131.697C332.45 146.085 325.809 160.252 319.501 174.197C313.192 188.143 307.382 201.479 302.069 214.207C296.757 226.935 292.164 238.169 288.29 247.908C284.416 257.537 281.373 265.285 279.159 271.15C277.056 277.016 275.949 280.06 275.839 280.281L267.372 278.123C266.044 269.601 264.826 261.909 263.72 255.047C262.723 248.185 261.838 241.6 261.063 235.291C260.399 228.982 259.901 222.729 259.569 216.531C259.237 210.333 259.071 203.693 259.071 196.609C259.071 190.854 259.292 184.269 259.735 176.854C260.289 169.438 261.008 161.58 261.893 153.279C262.889 144.979 263.996 136.456 265.214 127.713C266.542 118.969 267.925 110.392 269.364 101.98C270.914 93.569 272.518 85.6003 274.179 78.0742C275.839 70.4375 277.554 63.5755 279.325 57.4883C269.917 71.5443 261.285 85.7109 253.427 99.9883C245.679 114.266 238.319 128.266 231.346 141.99C224.374 155.714 217.623 169.051 211.093 182C204.563 194.839 197.867 206.902 191.005 218.191C184.143 229.48 176.893 239.829 169.257 249.236C161.62 258.644 153.208 266.668 144.022 273.309C134.947 280.06 124.875 285.262 113.807 288.914C102.74 292.677 90.3439 294.559 76.6199 294.559C66.2163 294.559 56.366 293.12 47.0691 290.242C37.8829 287.365 29.8035 283.325 22.8309 278.123C15.8582 272.921 10.3797 266.613 6.39531 259.197C2.30026 251.782 0.252731 243.592 0.252731 234.627C0.252731 224.445 2.46627 215.369 6.89336 207.4C11.2098 199.321 16.965 192.57 24.159 187.146C31.353 181.613 39.6538 177.407 49.0613 174.529C58.4689 171.652 68.2085 170.213 78.2801 170.213C84.0353 170.213 89.8458 170.6 95.7117 171.375C101.688 172.15 107.499 173.423 113.143 175.193C118.899 176.964 124.432 179.344 129.745 182.332C135.057 185.21 139.983 188.807 144.52 193.123L138.046 198.934C138.046 198.934 136.828 197.938 134.393 195.945C132.069 193.842 128.527 191.574 123.768 189.139C119.12 186.704 113.199 184.49 106.005 182.498C98.8107 180.395 90.3992 179.344 80.7703 179.344C73.0229 179.344 65.4969 180.451 58.1922 182.664C50.8875 184.878 44.3575 188.143 38.6023 192.459C32.9578 196.775 28.42 202.088 24.9891 208.396C21.5581 214.705 19.8426 222.01 19.8426 230.311C19.8426 238.833 21.6687 246.469 25.3211 253.221C28.9734 259.861 33.8432 265.451 39.9305 269.988C46.0177 274.637 52.935 278.123 60.6824 280.447C68.4298 282.882 76.3986 284.1 84.5887 284.1C96.7631 284.1 107.776 282.052 117.626 277.957C127.587 273.973 136.773 268.328 145.184 261.023C153.707 253.719 161.62 244.975 168.925 234.793C176.34 224.611 183.534 213.377 190.507 201.092C197.479 188.807 204.507 175.691 211.591 161.746C218.674 147.69 226.145 133.191 234.003 118.25C241.861 103.309 250.328 88.0905 259.403 72.5957C268.479 57.1009 278.495 41.7168 289.452 26.4434L297.089 30.4277C293.436 41.1634 290.503 52.5078 288.29 64.4609C286.076 76.3034 284.361 88.5332 283.143 101.15C282.037 113.657 281.262 126.329 280.819 139.168C280.487 152.007 280.266 164.679 280.155 177.186C280.044 189.692 279.934 201.922 279.823 213.875C279.823 225.717 279.546 236.951 278.993 247.576C282.756 237.947 287.294 226.714 292.606 213.875C297.919 201.036 303.785 187.479 310.204 173.201C316.623 158.924 323.43 144.425 330.624 129.705C337.929 114.874 345.344 100.708 352.87 87.2051C360.507 73.7025 368.199 61.362 375.946 50.1836C383.804 38.8945 391.496 29.5977 399.022 22.293C407.323 14.3242 415.624 8.73503 423.925 5.52539C432.336 2.20508 440.36 0.544922 447.997 0.544922C455.523 0.544922 462.274 1.81771 468.251 4.36328C474.338 6.79818 479.485 10.0632 483.69 14.1582C487.896 18.1426 491.106 22.791 493.319 28.1035C495.533 33.416 496.639 38.8945 496.639 44.5391C496.639 47.638 496.307 50.8477 495.643 54.168L487.177 52.3418Z" fill="#223344"/>
</svg>
